<svg id="_1" data-name="1" xmlns="http://www.w3.org/2000/svg" viewBox="0 0 269.17 425.24">
    <path id="_04" data-name="04" fill="#01579b"
          d="M121.41,329.13h187.5a37.5,37.5,0,0,1,37.5,37.5v0a37.5,37.5,0,0,1-37.5,37.5H121.41a0,0,0,0,1,0,0v-75a0,0,0,0,1,0,0Z"
          transform="translate(314.05 -75.6) rotate(55)"/>
    <path id="_01" data-name="01" fill="#54c5f8"
          d="M117.94,97.7h200a50,50,0,0,1,50,50v0a50,50,0,0,1-50,50h-250a0,0,0,0,1,0,0v-50a50,50,0,0,1,50-50Z"
          transform="translate(-131.33 111.38) rotate(-35)"/>
    <path id="_02" data-name="02" fill="#29b6f6"
          d="M139.4,224.07H326.9a37.5,37.5,0,0,1,37.5,37.5v0a37.5,37.5,0,0,1-37.5,37.5H139.4a0,0,0,0,1,0,0v-75a0,0,0,0,1,0,0Z"
          transform="translate(-190.5 151.45) rotate(-35)"/>
    <path id="_03" data-name="03" fill="#19a6e6"
          d="M196.62,324H337.24a28.12,28.12,0,0,1,28.12,28.12v0a28.12,28.12,0,0,1-28.12,28.12H196.62a0,0,0,0,1,0,0V324a0,0,0,0,1,0,0Z"
          transform="translate(-237.19 184.52) rotate(-35)"/>
</svg>