<svg version="1.1" id="tsdm" xmlns="http://www.w3.org/2000/svg" xmlns:xlink="http://www.w3.org/1999/xlink" viewBox="0 0 511.6 721.9">
<path id="XMLID_3_" class="st0" fill="#00579B" d="M130,293.5V384c0,0-79,69-59,161.5c10.8,31,20.2,59,59,92c0,2.5,0,70,0,70S7.3,664.8,0,511.5
	C0,430.8,42.8,377.8,130,293.5z"/>
<polygon id="XMLID_4_" class="st1" fill="#19A6E6" points="130,293.5 257.5,164.8 257.5,262.1 130,384 "/>
<path id="XMLID_7_" class="st1" fill="#19A6E6" d="M130,637.5c0,0,51.2,46,127.5,8v68.7c0,0-60.3,21.3-127.5-6.7V637.5z"/>
<polygon id="XMLID_8_" class="st2" fill="#29B6F6" points="257.5,164.8 401.5,20.1 401.5,118.5 257.5,262.1 "/>
<path id="XMLID_9_" class="st2" fill="#29B6F6" d="M401.5,522v89.3c0,0-39.5,38-46.5,44.1c-7,6.1-49.2,44.8-97.5,58.8v-68.7
	c0,0,29.1-14.7,61.7-42.3C351.8,575.5,401.5,522,401.5,522z"/>
<path id="XMLID_11_" class="st2" fill="#29B6F6" d="M401.8,354.5l-0.3,71.7l-108.3,107c0,0-15.5,10-28.7-4c-13.2-14,0-28.7,0-28.7L401.8,354.5z"/>
<path id="XMLID_12_" class="st2" fill="#29B6F6" d="M401.5,199.1v70.3L297.8,372.1c0,0-12.5,15.2-28.7,0c-16.2-15.2-1.7-31.7-1.7-31.7L401.5,199.1z
	"/>
<path id="XMLID_10_" class="st3" fill="#54C5F9" d="M401.5,20.1c0,0,34-43.7,66.7-2.3c31,41.3,66,86,24.3,179.7c0.3-0.3-2,3.5,0.2,6.5
	c0,0.2,40.5,63.2-1.5,147.8c-0.7,0-3.5,4.5-0.5,7.8c0-0.2,56,85.2-15.5,173.2c-45,47.5-73.6,78.4-73.6,78.4V522l27-30.2
	c0,0,40-42.7,8.7-101.3l-35.7,35.7l0.3-71.7l34-34c0,0,24.7-30-2-82.7l-32.3,31.7v-70.3l27.7-29.3c0,0,31.7-36.7,2-82l-29.7,30.7
	V20.1z"/>
</svg>
