<?xml version="1.0" encoding="utf-8"?>
<!-- Generator: Adobe Illustrator 14.0.0, SVG Export Plug-In . SVG Version: 6.00 Build 43363)  -->
<!DOCTYPE svg PUBLIC "-//W3C//DTD SVG 1.1//EN" "http://www.w3.org/Graphics/SVG/1.1/DTD/svg11.dtd">
<svg version="1.1" id="图层_1" xmlns="http://www.w3.org/2000/svg" xmlns:xlink="http://www.w3.org/1999/xlink" x="0px" y="0px"
	 width="108px" height="108px" viewBox="0 0 108 108" enable-background="new 0 0 108 108" xml:space="preserve">
<path id="XMLID_3_" fill="#01579B" d="M37.822,44.256l0.219,12.885c0,0-5.166,4.942-7.231,11.135
	c-0.947,2.666-1.641,7.492-0.678,11.921c1.494,5.679,6.961,9.538,6.961,9.538l0.614,1.059c0,0.33-0.021,9.629-0.021,9.629
	s-0.229-0.048-0.608-0.192C35.073,99.466,29,96,24.274,88.771c-2.069-3.649-3.624-8.332-3.909-14.281
	C20.366,63.617,26.088,55.609,37.822,44.256z"/>
<polygon id="XMLID_4_" fill="#19A6E6" points="37.085,44.993 54.651,27.272 54.818,40.211 37.085,58.104 "/>
<path id="XMLID_7_" fill="#19A6E6" d="M37.093,89.734c0,0,3.751,2.672,6.688,3.172s4.484,0.425,6.438,0.156
	c1.224-0.168,3.104-0.773,4.388-1.413l-0.018,9.771c0,0-2.349,1.251-5.776,1.299c-1.705,0.023-3.219,0-5.438-0.406
	s-3.833-0.907-6.293-2.078l0.002-8.986L37.093,89.734z"/>
<polygon id="XMLID_8_" fill="#29B6F6" points="54.254,27.618 74.015,7.757 74.089,20.941 54.254,40.724 "/>
<path id="XMLID_9_" fill="#29B6F6" d="M67.54,81.542c3.284-3.243,6.458-6.276,6.458-6.276l0.077,11.866c0,0-7.093,6.798-8.408,7.785
	s-6.729,5.265-11.437,6.608v-9.65c0,0,4.269-2.561,5.957-3.75S66.629,82.438,67.54,81.542z"/>
<path id="XMLID_11_" fill="#29B6F6" d="M74.004,52.828l0.064,9.533L59.31,77.02c0,0-1.812,1.855-3.875-0.373
	c-1.914-1.78-0.248-3.756-0.248-3.756L74.004,52.828z"/>
<path id="XMLID_12_" fill="#29B6F6" d="M73.996,31.881l0.021,9.457L59.664,55.586c0,0-1.813,1.891-4.021-0.193
	c-2.208-2.083-0.063-4.075-0.063-4.075L73.996,31.881z"/>
<path id="XMLID_10_" fill="#54C5F8" d="M73.635,8.188c0,0,4.572-5.893,8.992-0.305c4.164,5.563,8.894,11.582,3.275,24.181
	c0.051-0.051-0.279,0.482,0.025,0.863c0,0.025,5.461,8.509-0.203,19.889c-0.104,0-0.482,0.609-0.076,1.041
	c0-0.025,7.24,11.811-2.387,23.672c-6.07,6.4-9.632,10.059-9.632,10.059V75.617l3.638-3.98c0,0,5.385-5.74,1.168-13.64l-4.806,4.801
	l0.056-9.651l4.567-4.572c0,0,3.326-4.039-0.274-11.125l-4.349,4.267v-9.474l3.734-3.938c0,0,4.266-4.952,0.279-11.049l-3.988,4.124
	V8.188H73.635z"/>
</svg>
